<?xml version="1.0" encoding="utf-8"?>
<!-- Generator: Adobe Illustrator 24.3.0, SVG Export Plug-In . SVG Version: 6.00 Build 0)  -->
<svg version="1.1" id="Layer_1" xmlns="http://www.w3.org/2000/svg" xmlns:xlink="http://www.w3.org/1999/xlink" x="0px" y="0px"
	 viewBox="0 0 512 512" style="enable-background:new 0 0 512 512;" xml:space="preserve">
<g id="XMLID_1_">
	<path id="XMLID_11_" d="M473.56,239.03c-3.09,6.17-8.56,14.73-13.61,19.78H54.01c-2.95-4.07-9.96-13.19-13.05-19.78H473.56
		 M443.27,279.43c-5.05,7.01-12.62,13.75-20.76,18.24H90.06c-6.59-4.49-13.19-11.22-19.36-18.24H443.27 M397.26,316.88
		c-35.91,26.79-75.33,40.4-105.21,42.36c0-11.08,0-26.23,3.09-42.36H397.26 M511.44,106.61c3.09,32.82-7.57,72.8-27.77,113.2H334.13
		c5.47-9.54,12.62-18.66,20.62-27.91C398.24,141.12,465.01,109.55,511.44,106.61 M221.35,359.38
		c-28.76-1.96-68.31-15.57-104.5-42.36h103.1C221.91,333.01,221.91,348.3,221.35,359.38 M257.26,362.47
		c-11.64-11.08-21.74-26.23-32.26-45.45h64.11C279,336.1,267.92,351.39,257.26,362.47 M180.95,219.81H30.86
		c-20.34-40.4-30.3-80.38-27.35-113.2c46.01,2.95,113.34,34.37,156.83,85.29C167.77,201.15,175.34,210.27,180.95,219.81
		 M321.93,219.81H192.46c-1.96-11.64-1.96-22.72-1.96-35.91c0-70.84,31.28-144.06,66.63-176.89
		c34.93,32.82,66.77,106.19,66.77,176.89C324.03,197.08,322.91,208.31,321.93,219.81"/>
	<path id="XMLID_16_" d="M500.36,388.14c6.17,0,11.08,5.05,11.08,11.64c0,6.03-4.91,11.08-11.08,11.08
		c-6.17,0-11.08-5.05-11.08-11.08C489.28,393.19,494.33,388.14,500.36,388.14z M500.36,389.68c-5.61,0-9.54,4.49-9.54,10.1
		c0,5.05,4.07,9.54,9.54,9.54c5.05,0,9.54-4.49,9.54-9.54C510.04,394.31,505.41,389.68,500.36,389.68z M502.88,399.92
		c0.56,0,1.96,0.42,1.96,2.52v3.51h-1.96v-1.54c0-2.52-0.56-3.65-1.96-3.65h-2.52v5.05h-1.96v-12.62h4.07
		c2.52,0,4.49,1.54,4.49,3.65C504.99,398.24,503.86,399.92,502.88,399.92z M498.39,395.29v3.51h1.96c0.98,0,2.52-0.56,2.52-1.54
		c0-1.12-1.12-1.96-1.96-1.96H498.39"/>
	<path id="XMLID_17_" d="M473,504.99c21.18,0,39-8.56,39-29.74c0-12.06-8.56-20.2-22.3-23.85c-14.17-3.51-32.26-2.95-32.26-12.06
		c0.98-6.03,6.59-7.57,15.15-7.57c13.19,0,13.75,7.01,14.31,11.64h21.6c-1.54-16.69-15.15-28.34-36.89-28.34
		c-22.72,0-35.91,12.06-35.91,27.91c0,9.12,4.49,17.25,12.06,21.18c5.47,2.52,13.05,4.49,22.3,6.17c9.54,0.98,18.1,1.96,18.66,8.56
		c0,4.49-4.49,10.1-14.73,10.1c-14.73,0-17.67-8.14-17.67-13.61h-22.72C434.15,492.78,448.74,504.99,473,504.99"/>
	<path id="XMLID_20_" d="M378.04,504.99c9.68,0,18.24-3.09,25.39-7.57v5.61h21.74v-86.97h-21.88v6.59
		c-7.01-5.05-15.57-7.57-25.39-7.57c-24.69,0-45.45,19.78-45.45,45.03C332.59,484.79,353.35,504.99,378.04,504.99z M353.91,459.96
		c0-13.75,11.64-25.39,25.25-25.39c13.19,0,24.27,11.64,24.27,25.39c0,13.05-11.08,24.83-24.27,24.83
		C365.41,484.79,353.91,473,353.91,459.96"/>
	<path id="XMLID_23_" d="M304.25,386.17v36.33c-7.57-5.05-16.13-7.57-25.81-7.57c-24.83,0-45.03,19.78-45.03,45.03
		c0,24.83,20.2,44.89,45.03,44.89c9.54,0,18.66-3.09,25.81-7.57v5.61h21.18V386.03h-21.18V386.17z M254.32,459.96
		c0-13.75,11.64-25.39,24.69-25.39c13.75,0,25.39,11.64,25.39,25.39c0,13.05-11.64,24.83-25.39,24.83
		C265.82,484.79,254.32,473,254.32,459.96"/>
	<path id="XMLID_26_" d="M203.26,502.88h21.18v-86.97h-21.18V502.88z M203.26,407.92h21.18v-21.74h-21.18V407.92"/>
	<path id="XMLID_29_" d="M145.04,504.99c9.54,0,18.1-3.09,25.81-7.57v5.61h21.74V386.17h-21.74v36.33
		c-7.57-5.05-16.13-7.57-25.81-7.57c-24.83,0-45.45,19.78-45.45,45.03C99.59,484.79,120.21,504.99,145.04,504.99z M120.21,459.96
		c0-13.75,11.64-25.39,25.81-25.39c13.19,0,24.83,11.64,24.83,25.39c0,13.05-11.64,24.83-24.83,24.83
		C131.86,484.79,120.21,473,120.21,459.96"/>
	<path id="XMLID_32_" d="M44.89,504.99c10.1,0,18.66-3.09,26.23-7.57v5.61H92.3v-86.97H71.12v6.59c-7.57-5.05-16.69-7.57-26.23-7.57
		C20.06,415.07,0,434.85,0,460.1C0,484.79,20.2,504.99,44.89,504.99z M20.62,459.96c0-13.75,11.64-25.39,24.83-25.39
		c14.17,0,25.81,11.64,25.81,25.39c0,13.05-11.64,24.83-25.81,24.83C32.26,484.79,20.62,473,20.62,459.96"/>
</g>
</svg>
